<svg width="112" height="112" viewBox="0 0 112 112" fill="none" xmlns="http://www.w3.org/2000/svg">
  <rect x="8" y="8" width="96" height="96" rx="28" fill="#F1F3E8" />
  <path
    d="M23 63L56 34L89 63"
    stroke="#155128"
    stroke-width="9"
    stroke-linecap="round"
    stroke-linejoin="round"
  />
  <path d="M36 60V82C36 84.2091 37.7909 86 40 86H72C74.2091 86 76 84.2091 76 82V60" fill="#2F7034" />
  <path
    d="M56 20C48.6915 25.0978 44 33.5702 44 43.1379C44 52.7055 48.6915 61.1779 56 66.2757C63.3085 61.1779 68 52.7055 68 43.1379C68 33.5702 63.3085 25.0978 56 20Z"
    fill="#FCEA78"
  />
  <path
    d="M56 29C51.8647 32.5776 49 37.7879 49 43.1379C49 48.4878 51.8647 53.6981 56 57.2757C60.1353 53.6981 63 48.4878 63 43.1379C63 37.7879 60.1353 32.5776 56 29Z"
    fill="#0A4121"
  />
</svg>
